<?xml version="1.0" encoding="utf-8"?>
<!-- Generator: Adobe Illustrator 14.0.0, SVG Export Plug-In . SVG Version: 6.00 Build 43363)  -->
<!DOCTYPE svg PUBLIC "-//W3C//DTD SVG 1.1//EN" "http://www.w3.org/Graphics/SVG/1.1/DTD/svg11.dtd">
<svg version="1.1" id="Layer_1" xmlns="http://www.w3.org/2000/svg" xmlns:xlink="http://www.w3.org/1999/xlink" x="0px" y="0px"
	 width="220px" height="70px" viewBox="0 0 220 70" enable-background="new 0 0 220 70" xml:space="preserve">
<polygon fill-rule="evenodd" clip-rule="evenodd" fill="#FFFFFF" points="3.07,2.354 46.944,2.354 46.944,46.233 3.07,46.233 
	3.07,2.354 "/>
<path fill-rule="evenodd" clip-rule="evenodd" fill="none" d="M18.632,16.358c0.099,4.995,2.504,8.877,7.462,9.191l0-1.399
	c-4.013-0.129-7.014-4.089-7.38-7.792H18.632L18.632,16.358z M17.834,17.155c-0.274,0-0.498-0.235-0.498-0.526
	c0-0.29,0.224-0.526,0.498-0.526s0.498,0.236,0.498,0.526C18.332,16.92,18.108,17.155,17.834,17.155L17.834,17.155z M19.524,17.004
	c-0.274,0-0.498-0.236-0.498-0.527c0-0.289,0.224-0.526,0.498-0.526s0.498,0.237,0.498,0.526
	C20.022,16.768,19.798,17.004,19.524,17.004L19.524,17.004z M18.609,16.079c-0.275,0-0.498-0.236-0.498-0.527
	c0-0.289,0.223-0.526,0.498-0.526c0.274,0,0.498,0.237,0.498,0.526C19.107,15.842,18.883,16.079,18.609,16.079L18.609,16.079z
	 M26.09,41.846h-0.008c-0.339-0.797-0.543-1.547-0.643-2.129c-0.074-0.437-0.099-0.821-0.096-1.159
	c0.002-0.34,0.034-0.637,0.065-0.897c0.063-0.522,0.136-0.912,0.023-1.244c-0.162-0.093-1.054,1.03-1.647,1.122
	c-0.987,0.153-1.093-0.59-1.819-0.867c0.533-0.203,0.93-0.161,1.395-0.402c0.403-0.208,0.686-0.633,1.133-0.762
	c0.308-0.088,0.667-0.053,1.049,0.146c0.134,0,0.032-0.27-0.084-0.627c-0.09-0.276-0.223-0.615-0.228-0.908
	c-0.006-0.261,0.094-0.485,0.313-0.629c-0.222-0.381-0.361-0.765-0.381-1.042c-0.046-0.638,0.164-0.972,0.138-1.428
	c-0.019-0.327-0.011-0.801-0.136-0.98c-0.48,0.184-1.274,2.893-1.337,3.403l-0.698-0.422l-0.434,0.76
	c-0.165,0.289,0.668,1.151-0.223,1.618l-0.033-0.021c0.083-0.256,0.088-0.484-0.11-0.743c-0.335-0.438-0.79-0.126-1.437-0.563
	c-0.333-0.383-0.779-0.415-1.07-0.294c-0.201,0.083-0.354,0.243-0.372,0.545l-0.04,0.017c-0.19-0.429-0.021-0.767,0.243-0.978
	c0.655-0.522,2.267,0.303,2.444,0l0.404-0.687l-0.691-0.436c1.741-1.244,1.75-3.375,1.616-5.317l-0.111-0.057
	c-0.285,1.789-1.064,3.136-2.303,4.089c-0.466,0.359-1.042,0.689-1.679,0.15c0.766-0.514,1.527-1.583,1.778-2.481
	c0.246-0.88,0.352-1.903,0.315-3.042l-0.091-0.078c-0.346,1.989-1.426,3.003-2.151,3.528c-0.512,0.372-1.128,0.709-1.693,0.199
	c0.832-0.68,1.478-1.576,1.811-2.511c0.348-0.978,0.463-2.055,0.37-3.143l-0.08-0.104c-0.434,1.854-0.89,2.771-1.95,3.579
	c-0.533,0.405-1.145,0.642-1.75,0.095c1.102-0.842,1.554-1.59,1.866-2.876c0.308-1.271,0.493-2.359,0.474-3.783l-0.081-0.292
	c-0.418,2.363-1.069,3.833-1.833,4.484c-0.515,0.44-1.185,0.766-1.584,0.291c0.51-0.584,0.832-1.22,1.004-1.91
	c0.35-1.407,0.275-2.579,0.248-4.464c-0.017-1.231,0.116-2.405,0.693-3.448c0.592-1.07,1.912-1.338,2.872-1.059
	c1.564,0.473,1.967,2.328,1.229,3.478c-0.39,0.607-0.33,1.385-0.122,1.768c0.255,0.468,0.783,0.952,1.296,1.367
	c0.464,0.374,1.786,1.291,2.608,1.158c-0.038-0.481,0.092-1.006,0.251-1.541c0.16-0.534,0.35-1.078,0.431-1.593
	c0.074-0.469,0.013-1.021-0.227-1.34c-0.278-0.281-0.561-0.417-0.84-0.514c-0.359-0.125-0.569-0.184-0.78-0.471
	c-0.111-0.15-0.147-0.435-0.171-0.741c0.189,0.207,0.337,0.347,0.507,0.435c0.153,0.08,0.601,0.207,0.739,0.047
	c-0.146-0.324-0.414-0.602-0.736-0.759c-0.429-0.21-0.836-0.124-1.152,0.214c-0.089-0.338-0.034-0.744,0.237-0.993
	c0.283-0.259,0.873-0.166,1.185,0.002c-0.039-0.248,0.092-0.486,0.447-0.521c0.243-0.024,0.49,0.045,0.72,0.11
	c0.345,0.098,0.604,0.248,0.924,0.419L26.09,41.846L26.09,41.846z M24.254,14.739c0.117,0.058,0.231,0.152,0.32,0.251
	c0.13,0.157,0.551,0.079,0.791,0.151c0.146,0.044,0.215,0.104,0.225,0.078c-0.072-0.148-0.124-0.298-0.246-0.414
	C25.078,14.554,24.276,14.375,24.254,14.739L24.254,14.739z M33.563,16.359c-0.099,4.994-2.505,8.876-7.462,9.19V24.15
	c4.013-0.129,7.014-4.089,7.38-7.791H33.563L33.563,16.359z M34.361,17.155c0.274,0,0.498-0.235,0.498-0.526
	c0-0.29-0.224-0.526-0.498-0.526s-0.498,0.236-0.498,0.526C33.863,16.92,34.086,17.155,34.361,17.155L34.361,17.155z M32.671,17.005
	c0.274,0,0.499-0.237,0.499-0.527c0-0.29-0.225-0.527-0.499-0.527c-0.274,0-0.498,0.237-0.498,0.527
	C32.173,16.768,32.396,17.005,32.671,17.005L32.671,17.005z M33.586,16.079c0.274,0,0.499-0.236,0.499-0.527
	c0-0.289-0.224-0.526-0.499-0.526s-0.498,0.237-0.498,0.526C33.088,15.842,33.312,16.079,33.586,16.079L33.586,16.079z
	 M39.653,12.746c-0.11,5.98-0.209,24.644-13.539,29.1h-0.009c0.34-0.797,0.551-1.546,0.65-2.129
	c0.075-0.437,0.099-0.821,0.096-1.159c-0.002-0.34-0.034-0.637-0.065-0.897c-0.063-0.522-0.136-0.91-0.023-1.244
	c0.162-0.093,1.053,1.03,1.647,1.122c0.988,0.153,1.093-0.59,1.819-0.867c-0.533-0.203-0.93-0.161-1.395-0.402
	c-0.403-0.208-0.686-0.633-1.133-0.76c-0.308-0.09-0.667-0.054-1.048,0.145c-0.134,0-0.033-0.27,0.084-0.627
	c0.091-0.276,0.222-0.615,0.229-0.908c0.005-0.261-0.094-0.485-0.313-0.628c0.222-0.381,0.361-0.765,0.381-1.042
	c0.046-0.638-0.165-0.972-0.139-1.428c0.019-0.327,0.012-0.801,0.136-0.98c0.48,0.184,1.274,2.893,1.338,3.403l0.697-0.422
	l0.434,0.76c0.165,0.289-0.668,1.151,0.223,1.618l0.033-0.021c-0.084-0.256-0.088-0.484,0.11-0.743
	c0.334-0.438,0.79-0.127,1.437-0.564c0.333-0.382,0.779-0.415,1.07-0.293c0.201,0.083,0.354,0.242,0.372,0.545l0.039,0.016
	c0.19-0.429,0.02-0.767-0.244-0.978c-0.655-0.522-2.266,0.303-2.444,0l-0.404-0.687l0.691-0.435
	c-1.741-1.245-1.75-3.375-1.617-5.318l0.111-0.057c0.285,1.789,1.064,3.136,2.303,4.089c0.466,0.359,1.042,0.689,1.679,0.15
	c-0.766-0.514-1.527-1.583-1.778-2.481c-0.246-0.88-0.352-1.903-0.315-3.042l0.091-0.078c0.346,1.989,1.427,3.003,2.151,3.528
	c0.512,0.371,1.128,0.708,1.693,0.199c-0.831-0.68-1.477-1.576-1.81-2.511c-0.349-0.978-0.463-2.055-0.371-3.142l0.08-0.104
	c0.434,1.854,0.89,2.772,1.95,3.579c0.533,0.406,1.145,0.642,1.75,0.095c-1.102-0.842-1.554-1.59-1.866-2.876
	c-0.308-1.271-0.493-2.359-0.474-3.782l0.081-0.292c0.418,2.363,1.07,3.833,1.832,4.484c0.515,0.44,1.185,0.766,1.585,0.291
	c-0.51-0.584-0.833-1.22-1.004-1.91c-0.35-1.407-0.275-2.579-0.248-4.464c0.018-1.231-0.115-2.405-0.692-3.447
	c-0.593-1.071-1.913-1.338-2.873-1.059c-1.564,0.473-1.967,2.329-1.229,3.478c0.39,0.607,0.329,1.385,0.122,1.768
	c-0.255,0.468-0.783,0.952-1.296,1.367c-0.463,0.375-1.785,1.291-2.607,1.158c0.038-0.481-0.092-1.006-0.252-1.541
	c-0.16-0.534-0.35-1.078-0.431-1.593c-0.074-0.469-0.013-1.021,0.227-1.339c0.278-0.281,0.561-0.417,0.84-0.515
	c0.359-0.125,0.569-0.183,0.78-0.471c0.111-0.15,0.147-0.435,0.171-0.741c-0.189,0.207-0.337,0.347-0.507,0.435
	c-0.153,0.08-0.6,0.207-0.739,0.048c0.146-0.325,0.414-0.602,0.736-0.76c0.43-0.21,0.836-0.124,1.152,0.214
	c0.09-0.338,0.035-0.744-0.237-0.993c-0.284-0.259-0.873-0.166-1.185,0.002c0.038-0.248-0.092-0.486-0.447-0.521
	c-0.243-0.024-0.491,0.045-0.72,0.11c-0.345,0.099-0.604,0.248-0.925,0.419v-1.873H39.653L39.653,12.746z M27.94,14.739
	c-0.117,0.058-0.23,0.152-0.319,0.251c-0.13,0.157-0.551,0.079-0.791,0.152c-0.146,0.043-0.215,0.104-0.225,0.077
	c0.073-0.148,0.124-0.298,0.247-0.414C27.116,14.554,27.919,14.376,27.94,14.739L27.94,14.739z M13.146,41.846h-0.122l-2.665-32.99
	h0.062c0.461,1.285,1.695,1.608,2.725,0.875V41.846L13.146,41.846z M39.653,9.609v0.122H13.146c0.934-0.941,0.58-2.42-0.648-2.937
	V6.742L39.653,9.609L39.653,9.609z"/>
<path fill="#FFFFFF" d="M6.993,53.345c0-0.984-0.703-1.568-1.998-1.568c-0.547,0-1.04,0.063-1.487,0.063
	c-0.127,0-0.264-0.009-0.438-0.027c0.037,0.949,0.055,1.962,0.055,3.056c0,1.04-0.018,2.054-0.055,3.041
	c0.155-0.03,0.301-0.047,0.447-0.047c0.128,0,0.246,0.017,0.375,0.035c-0.037-0.638-0.046-1.141-0.046-1.505v-1.277
	c0.283,0.02,0.52,0.02,0.675,0.02C6.136,55.135,6.993,54.477,6.993,53.345L6.993,53.345z M6.154,53.418
	c0,0.931-0.639,1.396-1.916,1.396c-0.137,0-0.264-0.01-0.401-0.019v-0.802c0-0.649,0.018-1.261,0.046-1.835
	c0.191-0.019,0.374-0.027,0.557-0.027C5.615,52.132,6.154,52.46,6.154,53.418L6.154,53.418z M11.317,55.8
	c0-1.296-0.876-2.181-2.117-2.181c-1.204,0-2.116,0.885-2.116,2.181c0,1.305,0.885,2.191,2.116,2.191
	C10.415,57.991,11.317,57.131,11.317,55.8L11.317,55.8z M10.551,55.854c0,1.223-0.475,1.86-1.351,1.86
	c-0.885,0-1.359-0.656-1.359-1.923c0-1.261,0.474-1.907,1.35-1.907C10.077,53.884,10.551,54.559,10.551,55.854L10.551,55.854z
	 M13.033,57.909c-0.027-0.776-0.037-2.09-0.037-3.939c0-1.011,0-1.923,0.037-2.742c-0.119,0.009-0.255,0.019-0.383,0.019
	c-0.109,0-0.237-0.01-0.356-0.019c0.037,0.493,0.037,1.065,0.037,1.74v2.342c0,1.139,0,2.005-0.037,2.6
	c0.119-0.021,0.237-0.03,0.356-0.03C12.777,57.879,12.905,57.889,13.033,57.909L13.033,57.909z M15.259,52.15
	c0-0.256-0.201-0.447-0.457-0.447c-0.246,0-0.456,0.191-0.456,0.447c0,0.247,0.21,0.446,0.456,0.446
	C15.058,52.597,15.259,52.397,15.259,52.15L15.259,52.15z M15.167,57.909c-0.028-0.731-0.046-1.473-0.046-2.212
	c0-0.685,0.018-1.343,0.046-1.998c-0.109,0.026-0.237,0.036-0.365,0.036c-0.119,0-0.237-0.01-0.365-0.036
	c0.028,0.646,0.046,1.313,0.046,1.998c0,0.739-0.018,1.48-0.046,2.212c0.127-0.03,0.246-0.047,0.365-0.047
	C14.93,57.862,15.058,57.879,15.167,57.909L15.167,57.909z M18.634,57.697l-0.064-0.201c-0.256,0.128-0.465,0.191-0.621,0.191
	c-0.565,0-0.748-0.347-0.748-1.133c0-0.811,0.037-1.497,0.037-2.063c0-0.045,0.009-0.199,0.019-0.446
	c0.091-0.01,0.201-0.01,0.319-0.01c0.228,0,0.501,0.01,0.821,0.028V53.99c0-0.11,0.009-0.21,0.028-0.291
	c-0.448,0.036-0.831,0.045-1.159,0.045v-0.583c0-0.091,0.009-0.318,0.027-0.701c-0.21,0.102-0.448,0.174-0.721,0.22
	c0.009,0.235,0.019,0.481,0.019,0.744v0.302c-0.183,0-0.383-0.01-0.566-0.026c0,0.036,0.009,0.081,0.009,0.136
	c0,0.073-0.009,0.155-0.019,0.238c0.156-0.02,0.31-0.028,0.465-0.028h0.091v0.301c0,1.168-0.046,1.981-0.046,2.429
	c0,0.841,0.311,1.226,1.141,1.226C18.005,58,18.342,57.889,18.634,57.697L18.634,57.697z M22.649,55.553
	c0-1.249-0.667-1.942-1.798-1.942c-1.241,0-2.053,0.875-2.053,2.199c0,1.285,0.848,2.182,2.108,2.182
	c0.547,0,1.049-0.176,1.514-0.512v-0.11c0-0.102,0.009-0.22,0.018-0.338c-0.419,0.41-0.857,0.603-1.377,0.603
	c-0.967,0-1.496-0.648-1.496-1.861v-0.026h3.074C22.639,55.681,22.649,55.617,22.649,55.553L22.649,55.553z M21.928,55.435h-2.345
	c0.037-0.958,0.566-1.551,1.231-1.551c0.685,0,1.113,0.51,1.113,1.405V55.435L21.928,55.435z M26.963,53.976
	c-0.465-0.238-0.948-0.356-1.45-0.356c-1.332,0-2.217,0.866-2.217,2.19c0,1.331,0.849,2.19,2.089,2.19
	c0.63,0,1.122-0.138,1.524-0.449C26.9,57.496,26.9,57.433,26.9,57.369c0-0.092,0.009-0.201,0.018-0.33
	c-0.429,0.44-0.848,0.648-1.351,0.648c-0.921,0-1.551-0.711-1.551-1.888c0-1.213,0.557-1.897,1.497-1.897
	c0.557,0,0.958,0.272,1.213,0.839C26.781,54.459,26.863,54.193,26.963,53.976L26.963,53.976z M31.315,57.909
	c-0.019-0.595-0.037-1.051-0.037-1.371c0-0.529,0.027-0.985,0.027-1.368c0-1.031-0.474-1.551-1.423-1.551
	c-0.593,0-1.004,0.246-1.387,0.813c0-0.429-0.01-0.84-0.01-1.222c0-0.572,0.01-1.238,0.028-1.982
	c-0.109,0.019-0.237,0.037-0.365,0.037c-0.109,0-0.237-0.019-0.374-0.037c0.027,1.045,0.045,2.155,0.045,3.331
	c0,0.621-0.009,1.733-0.045,3.351c0.119-0.03,0.237-0.047,0.355-0.047c0.128,0,0.255,0.017,0.374,0.047
	c-0.009-0.486-0.019-0.833-0.019-1.041v-0.64c0-0.748,0.019-1.269,0.174-1.578c0.201-0.384,0.539-0.583,0.958-0.583
	c0.757,0,1.013,0.463,1.013,1.467c0,0.593-0.018,1.388-0.046,2.375c0.128-0.03,0.247-0.047,0.365-0.047
	C31.078,57.862,31.206,57.879,31.315,57.909L31.315,57.909z M36.178,57.909c-0.019-0.503-0.028-0.969-0.028-1.408
	c0-0.419,0.018-0.856,0.018-1.294c0-1.068-0.474-1.597-1.423-1.597c-0.603,0-1.058,0.282-1.396,0.866
	c0-0.109-0.009-0.22-0.009-0.328c0-0.146,0.009-0.293,0.018-0.446c-0.109,0.026-0.228,0.035-0.355,0.035
	c-0.11,0-0.238-0.009-0.365-0.035c0.036,0.628,0.036,1.294,0.036,2.025v0.628c0,0.538,0,1.051-0.036,1.554
	c0.127-0.03,0.247-0.047,0.365-0.047c0.127,0,0.255,0.017,0.374,0.047c-0.019-0.458-0.019-1.006-0.019-1.672v-0.401
	c0-0.593,0.019-1.04,0.301-1.386c0.2-0.267,0.483-0.383,0.83-0.383c0.675,0,1.013,0.437,1.013,1.312c0,1.059-0.019,1.907-0.055,2.53
	c0.127-0.03,0.247-0.047,0.365-0.047C35.932,57.862,36.059,57.879,36.178,57.909L36.178,57.909z M38.404,52.15
	c0-0.256-0.2-0.447-0.456-0.447c-0.246,0-0.456,0.191-0.456,0.447c0,0.247,0.21,0.446,0.456,0.446
	C38.204,52.597,38.404,52.397,38.404,52.15L38.404,52.15z M38.313,57.909c-0.027-0.731-0.045-1.473-0.045-2.212
	c0-0.685,0.018-1.343,0.045-1.998c-0.109,0.026-0.237,0.036-0.365,0.036c-0.119,0-0.237-0.01-0.365-0.036
	c0.027,0.646,0.045,1.313,0.045,1.998c0,0.739-0.018,1.48-0.045,2.212c0.128-0.03,0.246-0.047,0.365-0.047
	C38.076,57.862,38.204,57.879,38.313,57.909L38.313,57.909z M43.367,57.909c-0.803-0.951-1.505-1.765-2.099-2.459l0.803-0.758
	c0.483-0.456,0.857-0.794,1.158-0.993c-0.127,0.017-0.265,0.026-0.393,0.026c-0.127,0-0.255-0.01-0.392-0.026
	c-0.976,1.24-1.697,1.814-1.862,1.814c-0.1,0-0.146-0.054-0.146-0.153V55.06c0-1.116,0.009-2.388,0.046-3.832
	c-0.119,0.019-0.246,0.037-0.375,0.037c-0.119,0-0.246-0.019-0.374-0.037c0.037,1.126,0.046,2.235,0.046,3.328
	c0,0.859-0.009,1.972-0.046,3.354c0.128-0.03,0.255-0.047,0.374-0.047c0.128,0,0.256,0.017,0.375,0.047
	c-0.046-0.696-0.046-1.234-0.046-1.591v-0.501c0-0.083,0-0.12,0.083-0.12c0.136,0,0.784,0.722,1.888,2.212
	c0.146-0.03,0.301-0.039,0.456-0.039C43.03,57.87,43.203,57.879,43.367,57.909L43.367,57.909z M47.481,57.761l-0.037-0.174
	c-0.055,0.01-0.109,0.01-0.155,0.01c-0.337,0-0.392-0.164-0.392-0.593v-0.247l0.036-1.523v-0.108c0-1.013-0.392-1.498-1.405-1.498
	c-0.557,0-1.058,0.174-1.441,0.503l-0.019,0.466h0.073c0.274-0.421,0.657-0.63,1.149-0.63c0.72,0,0.994,0.383,0.994,1.169v0.189
	c-0.228,0.201-0.766,0.238-1.55,0.403c-0.703,0.154-1.041,0.528-1.041,1.166c0,0.693,0.438,1.098,1.232,1.098
	c0.511,0,0.958-0.212,1.332-0.604c0.055,0.354,0.183,0.52,0.493,0.52C47.007,57.907,47.235,57.834,47.481,57.761L47.481,57.761z
	 M46.268,56.849c0,0.128-0.009,0.237-0.155,0.384c-0.238,0.237-0.603,0.392-0.895,0.392c-0.493,0-0.793-0.31-0.793-0.848
	c0-0.704,0.557-0.868,1.843-1.077V56.849L46.268,56.849z"/>
<path fill="#FFFFFF" d="M11.516,60.677c-0.1,0.027-0.199,0.035-0.299,0.035c-0.1,0-0.19-0.008-0.28-0.035
	c-0.444,1.73-0.961,3.443-1.541,5.12c-0.625-1.722-1.188-3.435-1.704-5.12c-0.1,0.027-0.199,0.035-0.29,0.035
	c-0.1,0-0.191-0.008-0.29-0.035c-0.498,1.83-1.061,3.562-1.658,5.21c-0.581-1.793-1.088-3.534-1.541-5.21
	c-0.136,0.027-0.28,0.035-0.417,0.035c-0.145,0-0.29-0.008-0.426-0.035c0.688,2.156,1.323,4.168,1.894,6.055
	c0.109-0.028,0.208-0.047,0.308-0.047c0.109,0,0.209,0.019,0.309,0.047c0.262-0.727,0.806-2.375,1.658-4.948
	c0.607,1.685,1.16,3.335,1.631,4.957c0.109-0.037,0.208-0.046,0.317-0.046c0.108,0,0.208,0.009,0.308,0.037
	C10.156,64.754,10.818,62.743,11.516,60.677L11.516,60.677z M13.989,62.553c-0.145-0.027-0.253-0.046-0.335-0.046
	c-0.435,0-0.788,0.346-1.106,1.016c0-0.363,0.019-0.689,0.045-0.97c-0.118,0.026-0.245,0.035-0.372,0.035
	c-0.118,0-0.244-0.009-0.38-0.035c0.037,0.38,0.045,0.808,0.045,1.276c0,1.296-0.018,2.267-0.045,2.892
	c0.118-0.018,0.227-0.026,0.335-0.026c0.127,0,0.264,0.009,0.39,0.037c-0.027-0.4-0.045-0.998-0.045-1.786
	c0-1.206,0.254-1.795,0.925-1.795c0.145,0,0.28,0.037,0.426,0.118l0.072-0.045C13.944,62.97,13.954,62.734,13.989,62.553
	L13.989,62.553z M18.611,64.637c0-1.286-0.87-2.166-2.103-2.166c-1.196,0-2.102,0.88-2.102,2.166c0,1.296,0.879,2.177,2.102,2.177
	C17.714,66.813,18.611,65.96,18.611,64.637L18.611,64.637z M17.85,64.69c0,1.216-0.471,1.85-1.342,1.85
	c-0.878,0-1.35-0.653-1.35-1.913c0-1.25,0.471-1.893,1.341-1.893C17.379,62.734,17.85,63.405,17.85,64.69L17.85,64.69z
	 M22.87,62.824c-0.462-0.236-0.942-0.354-1.44-0.354c-1.323,0-2.202,0.861-2.202,2.175c0,1.324,0.843,2.176,2.076,2.176
	c0.625,0,1.114-0.137,1.513-0.445c-0.009-0.054-0.009-0.117-0.009-0.18c0-0.092,0.009-0.2,0.018-0.328
	c-0.426,0.437-0.842,0.644-1.341,0.644c-0.916,0-1.541-0.707-1.541-1.875c0-1.205,0.553-1.886,1.486-1.886
	c0.553,0,0.952,0.273,1.205,0.835C22.689,63.306,22.771,63.041,22.87,62.824L22.87,62.824z M25.054,62.357v-0.47
	c-0.127,0.109-0.335,0.289-0.644,0.507v-0.1c0-0.843,0.019-1.638,0.045-2.2c-0.118,0.009-0.253,0.019-0.38,0.019
	c-0.109,0-0.236-0.01-0.353-0.019c0.036,0.732,0.045,1.567,0.045,2.508v0.236c-0.263,0.181-0.344,0.234-0.616,0.397v0.462
	c0.38-0.31,0.571-0.471,0.607-0.489v1.286c0,0.976-0.018,1.718-0.036,2.236c0.117-0.021,0.235-0.028,0.353-0.028
	c0.127,0,0.253,0.008,0.38,0.028c-0.027-0.563-0.045-1.839-0.045-3.966C24.683,62.593,24.755,62.539,25.054,62.357L25.054,62.357z
	 M29.231,66.585l-0.036-0.172c-0.054,0.009-0.108,0.009-0.154,0.009c-0.335,0-0.39-0.163-0.39-0.589v-0.246l0.036-1.512v-0.109
	c0-1.005-0.39-1.485-1.396-1.485c-0.553,0-1.051,0.171-1.432,0.497l-0.018,0.463h0.072c0.272-0.416,0.653-0.626,1.142-0.626
	c0.715,0,0.988,0.383,0.988,1.161v0.189c-0.227,0.2-0.762,0.236-1.541,0.398c-0.698,0.155-1.033,0.526-1.033,1.161
	c0,0.688,0.435,1.089,1.224,1.089c0.507,0,0.951-0.211,1.323-0.601c0.054,0.354,0.181,0.517,0.49,0.517
	C28.76,66.729,28.987,66.656,29.231,66.585L29.231,66.585z M28.026,65.679c0,0.126-0.009,0.236-0.155,0.381
	c-0.235,0.236-0.598,0.389-0.888,0.389c-0.489,0-0.788-0.307-0.788-0.842c0-0.698,0.552-0.861,1.831-1.069V65.679L28.026,65.679z
	 M35.946,62.55c-0.082,0.01-0.172,0.019-0.263,0.019s-0.172-0.009-0.271-0.019c-0.553,1.623-0.979,2.701-1.233,3.229
	c-0.28-0.572-0.679-1.65-1.105-3.229c-0.09,0.019-0.181,0.028-0.262,0.028c-0.082,0-0.172-0.01-0.263-0.028
	c-0.335,1.179-0.716,2.257-1.16,3.238c-0.589-1.515-0.952-2.595-1.106-3.238c-0.136,0.028-0.271,0.036-0.398,0.036
	c-0.136,0-0.263-0.008-0.39-0.036c0.852,2.067,1.368,3.465,1.541,4.182c0.09-0.021,0.163-0.021,0.253-0.021
	c0.082,0,0.172,0,0.254,0.021c0.181-0.762,0.544-1.833,1.115-3.202c0.679,1.813,1.033,2.874,1.087,3.202
	c0.09-0.021,0.172-0.028,0.254-0.028c0.09,0,0.181,0.008,0.271,0.028C34.487,65.906,35.076,64.526,35.946,62.55L35.946,62.55z
	 M38.891,65.416c0-0.553-0.272-0.844-0.852-1.015l-0.607-0.182c-0.453-0.136-0.671-0.336-0.671-0.742
	c0-0.445,0.309-0.743,0.752-0.743c0.354,0,0.689,0.198,1.024,0.588c0.036-0.189,0.1-0.371,0.19-0.562
	c-0.299-0.182-0.68-0.29-1.105-0.29c-0.834,0-1.359,0.517-1.359,1.224c0,0.626,0.29,0.951,0.96,1.143l0.408,0.116
	c0.471,0.127,0.698,0.31,0.698,0.726c0,0.499-0.336,0.806-0.861,0.806c-0.426,0-0.789-0.226-1.078-0.68
	c-0.055,0.227-0.127,0.454-0.218,0.688c0.309,0.21,0.707,0.32,1.151,0.32C38.266,66.813,38.891,66.204,38.891,65.416L38.891,65.416z
	 M43.395,66.731c-0.797-0.943-1.495-1.752-2.084-2.44l0.797-0.753c0.48-0.455,0.852-0.79,1.151-0.988
	c-0.127,0.019-0.263,0.028-0.39,0.028c-0.126,0-0.253-0.01-0.39-0.028c-0.969,1.233-1.685,1.805-1.848,1.805
	c-0.1,0-0.145-0.055-0.145-0.154v-0.3c0-1.106,0.009-2.37,0.045-3.806c-0.118,0.019-0.245,0.037-0.372,0.037
	c-0.118,0-0.245-0.019-0.372-0.037c0.037,1.12,0.045,2.221,0.045,3.307c0,0.854-0.009,1.959-0.045,3.33
	c0.127-0.028,0.254-0.047,0.372-0.047c0.127,0,0.254,0.019,0.372,0.047c-0.045-0.69-0.045-1.225-0.045-1.58v-0.498
	c0-0.081,0-0.117,0.082-0.117c0.136,0,0.779,0.715,1.876,2.195c0.145-0.028,0.299-0.037,0.453-0.037
	C43.059,66.694,43.231,66.703,43.395,66.731L43.395,66.731z M47.481,66.585l-0.037-0.172c-0.054,0.009-0.108,0.009-0.154,0.009
	c-0.335,0-0.39-0.163-0.39-0.589v-0.246l0.036-1.512v-0.109c0-1.005-0.389-1.485-1.395-1.485c-0.553,0-1.051,0.171-1.432,0.497
	l-0.019,0.463h0.073c0.271-0.416,0.652-0.626,1.142-0.626c0.716,0,0.988,0.383,0.988,1.161v0.189c-0.227,0.2-0.761,0.236-1.54,0.398
	c-0.698,0.155-1.033,0.526-1.033,1.161c0,0.688,0.435,1.089,1.223,1.089c0.508,0,0.952-0.211,1.324-0.601
	c0.054,0.354,0.181,0.517,0.489,0.517C47.01,66.729,47.237,66.656,47.481,66.585L47.481,66.585z M46.276,65.679
	c0,0.126-0.009,0.236-0.154,0.381c-0.236,0.236-0.599,0.389-0.888,0.389c-0.489,0-0.789-0.307-0.789-0.842
	c0-0.698,0.553-0.861,1.831-1.069V65.679L46.276,65.679z"/>
<path fill-rule="evenodd" clip-rule="evenodd" fill="#FFFFFF" d="M78.126,39.771c-0.062,0.063-0.164,0.063-0.227,0
	c-0.063-0.063-0.063-0.165,0-0.228L93.6,23.833c0.063-0.062,0.165-0.062,0.228,0c0.062,0.063,0.062,0.164,0,0.227L78.126,39.771
	L78.126,39.771z M90.89,21.533c0.175-0.176,0.175-0.46,0-0.636c-0.175-0.176-0.459-0.176-0.636,0l-15.289,15.3
	c-0.174,0.176-0.174,0.46,0,0.636c0.176,0.176,0.46,0.176,0.637,0L90.89,21.533L90.89,21.533z M87.953,19.004
	c0.289-0.288,0.289-0.756,0-1.045c-0.289-0.288-0.757-0.288-1.046,0L72.033,32.851c-0.289,0.289-0.289,0.757,0,1.045
	s0.756,0.289,1.044,0L87.953,19.004L87.953,19.004z M85.016,16.477c0.401-0.401,0.401-1.052,0-1.454c-0.4-0.401-1.051-0.401-1.451,0
	L69.096,29.503c-0.4,0.4-0.4,1.052,0,1.454c0.402,0.402,1.053,0.402,1.455,0L85.016,16.477L85.016,16.477z M82.082,13.949
	c0.513-0.514,0.513-1.348,0-1.863c-0.514-0.514-1.347-0.514-1.862,0L66.16,26.157c-0.514,0.515-0.514,1.35,0,1.864
	c0.515,0.514,1.349,0.514,1.863,0L82.082,13.949L82.082,13.949z M79.147,11.421c0.627-0.627,0.627-1.644,0-2.272
	c-0.626-0.627-1.643-0.627-2.269,0L63.224,22.811c-0.628,0.627-0.628,1.644,0,2.271c0.627,0.628,1.645,0.628,2.271,0L79.147,11.421
	L79.147,11.421z"/>
<path fill-rule="evenodd" clip-rule="evenodd" fill="#FFFFFF" d="M90.586,39.861c-0.063,0.063-0.165,0.063-0.227,0
	c-0.063-0.063-0.063-0.165,0-0.227l15.711-15.711c0.063-0.063,0.165-0.063,0.228,0c0.063,0.063,0.063,0.165,0,0.227L90.586,39.861
	L90.586,39.861z M103.36,21.623c0.176-0.176,0.176-0.461,0-0.636c-0.175-0.175-0.46-0.175-0.636,0l-15.301,15.3
	c-0.176,0.176-0.176,0.461,0,0.635c0.175,0.179,0.46,0.179,0.637,0L103.36,21.623L103.36,21.623z M100.422,19.094
	c0.289-0.288,0.289-0.756,0-1.046c-0.289-0.287-0.756-0.287-1.046,0L84.488,32.94c-0.288,0.29-0.288,0.757,0,1.047
	c0.288,0.288,0.755,0.288,1.043,0L100.422,19.094L100.422,19.094z M97.484,16.566c0.401-0.401,0.401-1.052,0-1.454
	s-1.053-0.402-1.454,0L81.555,29.594c-0.4,0.401-0.4,1.052,0,1.454c0.402,0.401,1.053,0.401,1.452,0L97.484,16.566L97.484,16.566z
	 M94.546,14.039c0.516-0.514,0.516-1.349,0-1.863c-0.513-0.515-1.348-0.515-1.863,0L78.621,26.247c-0.513,0.514-0.513,1.349,0,1.862
	c0.514,0.515,1.348,0.515,1.862,0L94.546,14.039L94.546,14.039z M91.609,11.511c0.627-0.627,0.627-1.644,0-2.271
	c-0.628-0.627-1.644-0.627-2.273,0l-13.647,13.66c-0.627,0.627-0.627,1.645,0,2.272c0.626,0.627,1.642,0.627,2.268,0L91.609,11.511
	L91.609,11.511z"/>
<path fill-rule="evenodd" clip-rule="evenodd" fill="#FFFFFF" stroke="#FFFFFF" stroke-width="0.4765" stroke-miterlimit="2.4142" d="
	M123.449,17.262c-0.175,0.458-0.341,0.895-0.498,1.307c-0.156,0.413-0.275,0.729-0.354,0.95c-0.079,0.221-0.19,0.546-0.337,0.976
	c-0.145,0.43-0.294,0.871-0.445,1.32c-0.152,0.451-0.232,0.685-0.244,0.702l-0.56,0.001l-0.434-1.269
	c-0.157-0.464-0.318-0.927-0.483-1.385c-0.165-0.459-0.367-0.994-0.604-1.603c-0.298,0.766-0.517,1.33-0.656,1.693
	c-0.141,0.363-0.331,0.875-0.573,1.537s-0.373,1.004-0.39,1.026h-0.557l-0.514-1.551c-0.128-0.395-0.304-0.911-0.53-1.548
	c-0.226-0.637-0.479-1.337-0.757-2.105l0.644-0.27l0.479,1.417c0.105,0.321,0.188,0.578,0.252,0.77
	c0.064,0.193,0.174,0.519,0.331,0.981c0.156,0.46,0.308,0.891,0.452,1.293c0.21-0.518,0.403-1.009,0.582-1.475
	c0.178-0.466,0.345-0.923,0.503-1.371l0.473-1.354h0.628l0.479,1.468l0.968,2.732c0.443-1.174,0.811-2.207,1.104-3.098
	c0.293-0.89,0.439-1.34,0.439-1.353L123.449,17.262L123.449,17.262z"/>
<path fill-rule="evenodd" clip-rule="evenodd" fill="#FFFFFF" stroke="#FFFFFF" stroke-width="0.4765" stroke-miterlimit="2.4142" d="
	M127.33,18.905c-0.134,0.042-0.238,0.074-0.316,0.1c-0.078,0.026-0.229,0.083-0.456,0.166c-0.226,0.084-0.54,0.222-0.944,0.415v0.4
	l-0.015,0.671l0.015,1.128v0.714h-0.629l0.015-0.443v-1.285v-1.058v-1.257h0.614v0.6c0.058-0.029,0.199-0.101,0.424-0.215
	c0.227-0.113,0.43-0.21,0.611-0.288c0.183-0.08,0.369-0.145,0.561-0.196L127.33,18.905L127.33,18.905z"/>
<path fill-rule="evenodd" clip-rule="evenodd" fill="#FFFFFF" stroke="#FFFFFF" stroke-width="0.4765" stroke-miterlimit="2.4142" d="
	M132.168,20.464c0,0.203-0.01,0.365-0.031,0.483c-0.02,0.119-0.065,0.257-0.135,0.414c-0.099,0.279-0.246,0.51-0.441,0.694
	c-0.193,0.182-0.398,0.324-0.614,0.422c-0.215,0.081-0.458,0.122-0.731,0.122c-0.25,0-0.488-0.042-0.714-0.122
	c-0.24-0.098-0.423-0.209-0.551-0.331c-0.127-0.123-0.23-0.242-0.305-0.357c-0.075-0.117-0.15-0.256-0.227-0.418
	c-0.052-0.152-0.094-0.301-0.122-0.45c-0.028-0.148-0.044-0.301-0.044-0.457c0-0.291,0.036-0.538,0.108-0.741
	c0.073-0.203,0.145-0.359,0.215-0.465c0.069-0.109,0.16-0.223,0.27-0.345c0.188-0.187,0.372-0.317,0.558-0.392
	c0.188-0.076,0.335-0.126,0.445-0.153s0.235-0.04,0.375-0.04c0.145,0,0.271,0.012,0.379,0.035c0.108,0.023,0.254,0.071,0.436,0.144
	c0.184,0.072,0.342,0.177,0.476,0.313c0.133,0.137,0.24,0.27,0.318,0.4c0.078,0.131,0.143,0.257,0.191,0.375
	c0.05,0.12,0.086,0.256,0.108,0.41C132.156,20.161,132.168,20.313,132.168,20.464L132.168,20.464z M131.539,20.494
	c0-0.249-0.044-0.493-0.131-0.731c-0.076-0.237-0.201-0.437-0.374-0.599c-0.047-0.052-0.096-0.094-0.148-0.127
	c-0.052-0.032-0.117-0.063-0.195-0.095s-0.157-0.057-0.235-0.074c-0.078-0.017-0.155-0.026-0.23-0.026
	c-0.18,0-0.339,0.032-0.479,0.096c-0.128,0.047-0.243,0.124-0.344,0.23c-0.102,0.108-0.181,0.206-0.24,0.296
	c-0.058,0.089-0.104,0.186-0.143,0.286c-0.038,0.102-0.065,0.218-0.083,0.348s-0.026,0.25-0.026,0.36
	c0,0.168,0.007,0.304,0.021,0.404c0.015,0.102,0.051,0.237,0.109,0.404c0.058,0.168,0.148,0.31,0.273,0.426s0.217,0.192,0.275,0.227
	c0.058,0.034,0.139,0.071,0.243,0.108c0.104,0.038,0.232,0.058,0.383,0.058c0.18,0,0.322-0.023,0.426-0.071
	c0.105-0.046,0.188-0.088,0.249-0.125c0.062-0.039,0.117-0.089,0.17-0.153c0.155-0.151,0.275-0.337,0.356-0.561
	C131.499,20.953,131.539,20.726,131.539,20.494L131.539,20.494z"/>
<path fill-rule="evenodd" clip-rule="evenodd" fill="#FFFFFF" stroke="#FFFFFF" stroke-width="0.4765" stroke-miterlimit="2.4142" d="
	M136.455,21.985l-0.061,0.529h-0.097h-0.113c-0.337,0-0.659-0.035-0.971-0.105c-0.311-0.069-0.563-0.156-0.758-0.261
	c-0.195-0.105-0.354-0.215-0.475-0.332c-0.122-0.115-0.252-0.281-0.389-0.496c-0.137-0.215-0.204-0.504-0.204-0.871
	c0-0.314,0.063-0.574,0.188-0.78c0.125-0.207,0.237-0.362,0.34-0.47c0.101-0.108,0.248-0.22,0.439-0.336
	c0.191-0.115,0.459-0.217,0.802-0.304c0.342-0.088,0.685-0.132,1.027-0.132h0.087h0.079l0.026,0.544h-0.07h-0.043
	c-0.308,0-0.565,0.017-0.771,0.052s-0.41,0.091-0.613,0.165c-0.26,0.13-0.47,0.306-0.628,0.53c-0.155,0.225-0.234,0.467-0.234,0.73
	c0,0.302,0.079,0.564,0.234,0.786c0.128,0.21,0.278,0.354,0.45,0.432c0.171,0.079,0.31,0.136,0.417,0.17
	c0.107,0.036,0.255,0.069,0.439,0.101c0.188,0.033,0.398,0.049,0.637,0.049h0.156H136.455L136.455,21.985z"/>
<path fill-rule="evenodd" clip-rule="evenodd" fill="#FFFFFF" stroke="#FFFFFF" stroke-width="0.4765" stroke-miterlimit="2.4142" d="
	M138.639,19.273l0.559-0.261l0.243-0.131l0.184,0.375l-0.332,0.148l-0.653,0.288l0.028,1.954c0,0.558,0,0.843,0,0.854h-0.637
	l0.009-0.886v-1.661l-0.465,0.236c-0.085,0.045-0.146,0.078-0.186,0.096c-0.036,0.017-0.063,0.034-0.08,0.052l-0.199-0.384
	c0.052-0.018,0.104-0.034,0.155-0.052c0.08-0.046,0.143-0.081,0.188-0.104l0.586-0.268v-1.201v-1.714h0.628c0,0.117,0,0.324,0,0.622
	c0,0.297,0,0.539,0,0.726L138.639,19.273L138.639,19.273z"/>
<path fill-rule="evenodd" clip-rule="evenodd" fill="#FFFFFF" stroke="#FFFFFF" stroke-width="0.4765" stroke-miterlimit="2.4142" d="
	M143.434,20.215v1.598v0.686l-0.366,0.02c-0.204,0.024-0.49,0.039-0.862,0.039c-0.093,0-0.189-0.006-0.292-0.014
	c-0.102-0.008-0.221-0.024-0.362-0.047c-0.208-0.024-0.399-0.083-0.575-0.175c-0.201-0.087-0.372-0.216-0.508-0.388
	c-0.138-0.171-0.205-0.379-0.205-0.623c0-0.256,0.072-0.477,0.219-0.663c0.173-0.191,0.377-0.336,0.608-0.431
	c0.231-0.096,0.423-0.157,0.57-0.183c0.149-0.026,0.326-0.055,0.532-0.084c0.206-0.029,0.419-0.054,0.642-0.079
	c0-0.104-0.014-0.19-0.04-0.261c-0.026-0.069-0.077-0.162-0.152-0.279c-0.076-0.115-0.165-0.193-0.266-0.235
	c-0.104-0.041-0.193-0.072-0.27-0.096c-0.079-0.022-0.151-0.041-0.215-0.052l-0.505-0.035c-0.14,0-0.245,0-0.313,0l-0.341,0.017
	l0.068-0.531h0.235h0.495c0.331,0,0.617,0.035,0.864,0.104c0.245,0.069,0.441,0.173,0.586,0.313
	c0.145,0.116,0.256,0.278,0.334,0.487C143.395,19.512,143.434,19.815,143.434,20.215L143.434,20.215z M142.834,21.186v-0.343v-0.472
	c-0.123,0-0.336,0.023-0.642,0.07c-0.305,0.046-0.518,0.095-0.641,0.147c-0.12,0.051-0.212,0.093-0.273,0.125
	c-0.061,0.032-0.142,0.096-0.24,0.19c-0.099,0.095-0.147,0.223-0.147,0.384c0,0.157,0.038,0.28,0.111,0.373
	c0.078,0.092,0.149,0.158,0.216,0.199c0.065,0.041,0.156,0.079,0.27,0.116c0.114,0.037,0.193,0.061,0.239,0.069
	c0.048,0.008,0.1,0.019,0.156,0.031l0.507,0.025h0.191h0.253v-0.266V21.186L142.834,21.186z"/>
<path fill-rule="evenodd" clip-rule="evenodd" fill="#FFFFFF" stroke="#FFFFFF" stroke-width="0.4765" stroke-miterlimit="2.4142" d="
	M151.006,18.602c-0.365,0.896-0.639,1.595-0.82,2.095c-0.18,0.5-0.331,0.924-0.453,1.27c-0.122,0.346-0.188,0.525-0.2,0.537
	l-0.495,0.003l-0.324-0.942l-0.761-2.155l-0.775,2.051l-0.395,1.042l-0.497,0.001c-0.017-0.063-0.058-0.191-0.121-0.384
	c-0.064-0.192-0.195-0.56-0.39-1.104c-0.196-0.543-0.501-1.339-0.917-2.387l0.594-0.271l1.09,3.289l1.188-3.143h0.501l1.083,3.143
	l1.136-3.289L151.006,18.602L151.006,18.602z"/>
<path fill-rule="evenodd" clip-rule="evenodd" fill="#FFFFFF" stroke="#FFFFFF" stroke-width="0.4765" stroke-miterlimit="2.4142" d="
	M154.625,21.326c0,0.116-0.011,0.211-0.03,0.287c-0.021,0.076-0.057,0.151-0.109,0.227c-0.041,0.076-0.093,0.145-0.155,0.209
	c-0.065,0.063-0.144,0.125-0.236,0.183c-0.092,0.058-0.182,0.104-0.261,0.135c-0.081,0.032-0.183,0.065-0.306,0.1
	c-0.104,0.019-0.217,0.033-0.34,0.044c-0.121,0.012-0.252,0.018-0.391,0.018h-0.41l-0.243-0.018l-0.018-0.525l0.278,0.029h0.48
	l0.358-0.029c0.133,0,0.249-0.023,0.345-0.069c0.096-0.047,0.166-0.085,0.215-0.114c0.046-0.028,0.091-0.077,0.138-0.144
	c0.047-0.067,0.071-0.162,0.071-0.284c0-0.099-0.029-0.184-0.089-0.253c-0.058-0.07-0.124-0.129-0.201-0.179
	c-0.075-0.05-0.131-0.086-0.166-0.11c-0.036-0.022-0.144-0.073-0.323-0.152c-0.182-0.078-0.293-0.132-0.338-0.161
	c-0.044-0.028-0.121-0.077-0.23-0.145c-0.111-0.066-0.207-0.172-0.291-0.319c-0.098-0.144-0.147-0.319-0.147-0.523
	c0-0.187,0.051-0.359,0.152-0.519c0.103-0.161,0.242-0.287,0.419-0.38c0.178-0.093,0.326-0.146,0.441-0.161
	c0.117-0.015,0.232-0.028,0.345-0.04c0.114-0.012,0.221-0.017,0.318-0.017h0.394h0.191l0.035,0.531l-0.245-0.018h-0.462
	c-0.145,0-0.265,0.013-0.358,0.036c-0.093,0.011-0.152,0.022-0.179,0.031s-0.08,0.037-0.162,0.083s-0.148,0.107-0.2,0.183
	c-0.041,0.082-0.061,0.163-0.061,0.243c0,0.111,0.023,0.193,0.073,0.245c0.051,0.052,0.097,0.098,0.141,0.136
	c0.043,0.037,0.085,0.065,0.126,0.082c0.047,0.035,0.112,0.075,0.195,0.118c0.085,0.044,0.196,0.094,0.332,0.153
	c0.138,0.057,0.249,0.123,0.336,0.191c0.088,0.046,0.166,0.102,0.235,0.166c0.07,0.064,0.134,0.133,0.192,0.209
	C154.578,20.942,154.625,21.116,154.625,21.326L154.625,21.326z"/>
<path fill-rule="evenodd" clip-rule="evenodd" fill="#FFFFFF" stroke="#FFFFFF" stroke-width="0.4765" stroke-miterlimit="2.4142" d="
	M156.863,22.499h-0.615l0.015-1.085v-2.072v-1.128v-1.601h0.623l-0.022,1.672v1.113v1.733V22.499L156.863,22.499z M159.755,22.42
	l-0.386,0.332c-0.535-0.537-1.062-1.054-1.578-1.55l-0.786-0.744l0.845-0.854c0.54-0.547,0.944-0.969,1.214-1.265l0.387,0.412
	l-0.996,0.989l-0.658,0.616l0.595,0.628L159.755,22.42L159.755,22.42z"/>
<path fill-rule="evenodd" clip-rule="evenodd" fill="#FFFFFF" stroke="#FFFFFF" stroke-width="0.4765" stroke-miterlimit="2.4142" d="
	M161.746,17.67h-0.7v-0.686h0.7V17.67L161.746,17.67z M161.717,22.499h-0.642v-0.785v-1.201V19.6v-1.143h0.638l-0.039,1.072v0.899
	v1.486L161.717,22.499L161.717,22.499z"/>
<path fill-rule="evenodd" clip-rule="evenodd" fill="#FFFFFF" stroke="#FFFFFF" stroke-width="0.4765" stroke-miterlimit="2.4142" d="
	M166.83,20.328h-2.91c0,0.174,0.015,0.318,0.048,0.431c0.032,0.114,0.074,0.229,0.128,0.345c0.134,0.244,0.316,0.442,0.551,0.593
	c0.064,0.036,0.147,0.077,0.247,0.122c0.099,0.048,0.195,0.08,0.288,0.097c0.077,0.023,0.18,0.04,0.308,0.052
	c0.13,0.012,0.264,0.018,0.404,0.018h0.422l0.244-0.028l-0.079,0.542h-0.209l-0.418,0.015c-0.24,0-0.448-0.012-0.625-0.035
	c-0.178-0.023-0.352-0.067-0.521-0.13s-0.31-0.129-0.419-0.192c-0.111-0.063-0.234-0.158-0.372-0.283
	c-0.137-0.125-0.278-0.327-0.423-0.606c-0.117-0.261-0.175-0.54-0.175-0.836c0-0.313,0.047-0.598,0.139-0.851
	c0.093-0.252,0.227-0.475,0.397-0.667c0.173-0.191,0.347-0.324,0.52-0.396c0.177-0.073,0.321-0.122,0.438-0.148
	c0.115-0.026,0.237-0.04,0.366-0.04c0.116,0,0.232,0.013,0.345,0.036c0.114,0.023,0.222,0.054,0.323,0.092
	c0.103,0.037,0.191,0.082,0.268,0.135c0.073,0.053,0.174,0.144,0.291,0.275c0.119,0.131,0.22,0.325,0.302,0.581
	C166.789,19.703,166.83,19.997,166.83,20.328L166.83,20.328z M166.219,19.871c-0.028-0.169-0.071-0.319-0.125-0.451
	c-0.057-0.129-0.149-0.264-0.283-0.401s-0.354-0.206-0.663-0.206c-0.157,0-0.294,0.022-0.41,0.065
	c-0.116,0.044-0.225,0.114-0.332,0.21c-0.104,0.096-0.19,0.206-0.257,0.328c-0.065,0.123-0.124,0.274-0.17,0.455H166.219
	L166.219,19.871z"/>
<path fill-rule="evenodd" clip-rule="evenodd" fill="#FFFFFF" stroke="#FFFFFF" stroke-width="0.4765" stroke-miterlimit="2.4142" d="
	M174.9,21.999l-0.046,0.211l-0.024,0.36h-0.071h-0.077c-0.645,0-1.221-0.083-1.726-0.249c-0.504-0.165-0.922-0.399-1.254-0.701
	c-0.127-0.134-0.231-0.258-0.313-0.372c-0.081-0.112-0.172-0.285-0.272-0.518c-0.097-0.233-0.146-0.544-0.146-0.934
	c0-0.342,0.061-0.655,0.187-0.938c0.126-0.282,0.298-0.538,0.519-0.772c0.313-0.302,0.658-0.518,1.037-0.649
	c0.378-0.129,0.715-0.222,1.014-0.274c0.3-0.053,0.582-0.079,0.851-0.079h0.095h0.086l0.01,0.229l0.026,0.343h-0.061h-0.07
	c-0.297,0-0.588,0.029-0.877,0.087c-0.286,0.058-0.507,0.113-0.657,0.166c-0.151,0.053-0.346,0.146-0.584,0.278
	c-0.238,0.134-0.446,0.351-0.624,0.649c-0.177,0.301-0.266,0.624-0.266,0.973c0,0.366,0.083,0.696,0.249,0.99
	c0.166,0.293,0.368,0.508,0.604,0.645c0.24,0.136,0.444,0.237,0.617,0.301c0.17,0.064,0.34,0.115,0.51,0.157
	c0.325,0.063,0.676,0.095,1.055,0.095h0.077H174.9L174.9,21.999z"/>
<path fill-rule="evenodd" clip-rule="evenodd" fill="#FFFFFF" stroke="#FFFFFF" stroke-width="0.4765" stroke-miterlimit="2.4142" d="
	M179.487,20.328h-2.912c0,0.174,0.016,0.318,0.048,0.431c0.033,0.114,0.075,0.229,0.128,0.345c0.134,0.244,0.318,0.442,0.552,0.593
	c0.065,0.036,0.148,0.077,0.247,0.122c0.099,0.048,0.196,0.08,0.29,0.097c0.075,0.023,0.179,0.04,0.307,0.052
	c0.129,0.012,0.262,0.018,0.403,0.018h0.421l0.247-0.028l-0.078,0.542h-0.21l-0.422,0.015c-0.237,0-0.444-0.012-0.623-0.035
	c-0.178-0.023-0.351-0.067-0.52-0.13c-0.17-0.063-0.31-0.129-0.421-0.192c-0.109-0.063-0.234-0.158-0.37-0.283
	c-0.137-0.125-0.277-0.327-0.424-0.606c-0.117-0.261-0.175-0.54-0.175-0.836c0-0.313,0.046-0.598,0.141-0.851
	c0.093-0.252,0.224-0.475,0.397-0.667c0.17-0.191,0.344-0.324,0.52-0.396c0.175-0.073,0.319-0.122,0.436-0.148
	c0.117-0.026,0.239-0.04,0.368-0.04c0.116,0,0.23,0.013,0.345,0.036s0.22,0.054,0.323,0.092c0.101,0.037,0.189,0.082,0.266,0.135
	c0.076,0.053,0.175,0.144,0.293,0.275c0.119,0.131,0.221,0.325,0.303,0.581C179.448,19.703,179.487,19.997,179.487,20.328
	L179.487,20.328z M178.877,19.871c-0.029-0.169-0.07-0.319-0.127-0.451c-0.056-0.129-0.149-0.264-0.283-0.401
	c-0.133-0.137-0.354-0.206-0.662-0.206c-0.158,0-0.294,0.022-0.411,0.065c-0.115,0.044-0.226,0.114-0.331,0.21
	c-0.104,0.096-0.189,0.206-0.256,0.328c-0.068,0.123-0.124,0.274-0.172,0.455H178.877L178.877,19.871z"/>
<path fill-rule="evenodd" clip-rule="evenodd" fill="#FFFFFF" stroke="#FFFFFF" stroke-width="0.4765" stroke-miterlimit="2.4142" d="
	M184.359,22.499h-0.628v-0.743v-0.771v-0.614v-0.6c0-0.299-0.045-0.502-0.131-0.611c-0.086-0.109-0.175-0.18-0.261-0.212
	c-0.087-0.032-0.203-0.048-0.348-0.048c-0.169,0-0.342,0.038-0.518,0.116c-0.18,0.078-0.323,0.144-0.438,0.197
	c-0.112,0.053-0.239,0.125-0.378,0.215v0.485l-0.014,0.772l0.014,1.128v0.686h-0.628l0.015-0.5v-1.356v-0.986v-1.204h0.613V18.9
	c0.197-0.104,0.377-0.193,0.537-0.269c0.161-0.075,0.294-0.129,0.398-0.164s0.219-0.067,0.341-0.096
	c0.122-0.028,0.22-0.043,0.287-0.043c0.169,0,0.322,0.028,0.459,0.083c0.138,0.056,0.284,0.163,0.441,0.323
	c0.157,0.159,0.236,0.428,0.236,0.807l-0.028,0.89v0.584v0.908L184.359,22.499L184.359,22.499z"/>
<path fill-rule="evenodd" clip-rule="evenodd" fill="#FFFFFF" stroke="#FFFFFF" stroke-width="0.4765" stroke-miterlimit="2.4142" d="
	M188.483,21.999l-0.069,0.515h-0.131h-0.192c-0.552,0-0.966-0.113-1.246-0.339c-0.278-0.226-0.418-0.572-0.418-1.042v-0.947v-1.271
	h-0.657v-0.458h0.701V17.5h0.571v0.957h1.441v0.458h-1.441v0.506v0.622v0.415v0.571c0,0.18,0.021,0.329,0.066,0.451
	c0.043,0.121,0.134,0.239,0.268,0.351c0.134,0.113,0.403,0.169,0.809,0.169h0.176H188.483L188.483,21.999z"/>
<path fill-rule="evenodd" clip-rule="evenodd" fill="#FFFFFF" stroke="#FFFFFF" stroke-width="0.4765" stroke-miterlimit="2.4142" d="
	M192.341,18.905c-0.133,0.042-0.238,0.074-0.318,0.1c-0.076,0.026-0.229,0.083-0.453,0.166c-0.226,0.084-0.542,0.222-0.944,0.415
	v0.4l-0.015,0.671l0.015,1.128v0.714h-0.629l0.014-0.443v-1.285v-1.058v-1.257h0.615v0.6c0.056-0.029,0.199-0.101,0.424-0.215
	c0.225-0.113,0.43-0.21,0.611-0.288c0.183-0.08,0.368-0.145,0.559-0.196L192.341,18.905L192.341,18.905z"/>
<path fill-rule="evenodd" clip-rule="evenodd" fill="#FFFFFF" stroke="#FFFFFF" stroke-width="0.4765" stroke-miterlimit="2.4142" d="
	M196.92,22.499h-0.601v-0.485c-0.09,0.064-0.2,0.13-0.325,0.196c-0.127,0.067-0.253,0.133-0.373,0.197
	c-0.287,0.128-0.56,0.192-0.819,0.192c-0.358,0-0.641-0.107-0.852-0.322c-0.208-0.215-0.314-0.522-0.314-0.924v-0.756
	c0-0.127,0-0.247,0-0.357c0-0.11,0-0.208,0-0.295v-0.888l-0.029-0.6h0.637l-0.007,0.565v0.834v0.686v0.571
	c0,0.314,0.053,0.55,0.161,0.708c0.107,0.157,0.275,0.235,0.502,0.235c0.244,0,0.505-0.07,0.784-0.211
	c0.146-0.058,0.27-0.116,0.371-0.17c0.103-0.057,0.192-0.111,0.265-0.164v-0.439v-0.972v-1.014v-0.628h0.619L196.92,18.9v1.299
	v0.914V22.499L196.92,22.499z"/>
<path fill-rule="evenodd" clip-rule="evenodd" fill="#FFFFFF" stroke="#FFFFFF" stroke-width="0.4765" stroke-miterlimit="2.4142" d="
	M204.617,22.499h-0.6v-0.547c0-0.122,0-0.293,0-0.512c0-0.221,0-0.377,0-0.469v-0.615V20.08c0-0.059,0-0.121,0-0.187
	c0-0.067,0-0.115,0-0.143c0-0.324-0.062-0.547-0.185-0.668c-0.124-0.122-0.309-0.182-0.556-0.182c-0.135,0-0.304,0.033-0.507,0.099
	c-0.202,0.067-0.438,0.184-0.709,0.351v0.07v0.164v0.66v0.628v1.143v0.485h-0.608l0.008-0.485v-1.042v-0.615v-0.598
	c0-0.141-0.015-0.256-0.042-0.344c0-0.098-0.036-0.186-0.104-0.266c-0.057-0.086-0.13-0.149-0.22-0.189
	c-0.089-0.04-0.211-0.06-0.365-0.06c-0.155,0-0.319,0.041-0.49,0.124c-0.173,0.083-0.295,0.144-0.366,0.182
	c-0.072,0.038-0.187,0.108-0.341,0.208v0.514l-0.033,0.715l0.033,1.156v0.7h-0.642v-0.485V20.6v-0.886v-1.261h0.627l0.015,0.447
	c0.057-0.036,0.17-0.098,0.337-0.191c0.166-0.091,0.34-0.179,0.521-0.26c0.181-0.08,0.355-0.121,0.522-0.121
	c0.131,0,0.247,0.013,0.349,0.04c0.101,0.026,0.202,0.068,0.307,0.126c0.172,0.117,0.297,0.256,0.371,0.418
	c0.151-0.093,0.297-0.175,0.438-0.249c0.142-0.073,0.275-0.13,0.4-0.174c0.125-0.043,0.24-0.082,0.347-0.113
	c0.107-0.032,0.216-0.048,0.327-0.048c0.348,0,0.631,0.106,0.843,0.321c0.215,0.214,0.322,0.506,0.322,0.875v0.719v0.628v1.123
	V22.499L204.617,22.499z"/>
<polygon fill-rule="evenodd" clip-rule="evenodd" fill="#FFFFFF" stroke="#FFFFFF" stroke-width="0.4765" stroke-miterlimit="2.4142" points="
	119.828,27.511 119.291,27.483 117.846,27.483 117.828,28.74 117.828,29.896 117.828,31.336 117.871,32.297 117.22,32.297 
	117.229,31.312 117.229,29.882 117.229,28.768 117.229,27.483 115.822,27.483 115.243,27.483 115.243,26.941 116.239,26.941 
	117.514,26.941 119.12,26.941 119.828,26.941 119.828,27.511 "/>
<path fill-rule="evenodd" clip-rule="evenodd" fill="#FFFFFF" stroke="#FFFFFF" stroke-width="0.4765" stroke-miterlimit="2.4142" d="
	M123.44,28.702c-0.133,0.042-0.238,0.075-0.316,0.101s-0.229,0.082-0.455,0.166c-0.226,0.084-0.541,0.222-0.945,0.414v0.4
	l-0.015,0.672l0.015,1.127v0.715h-0.629l0.015-0.443v-1.286v-1.058v-1.256h0.614v0.599c0.058-0.027,0.199-0.1,0.425-0.214
	c0.226-0.113,0.43-0.209,0.612-0.289c0.182-0.078,0.367-0.144,0.559-0.197L123.44,28.702L123.44,28.702z"/>
<path fill-rule="evenodd" clip-rule="evenodd" fill="#FFFFFF" stroke="#FFFFFF" stroke-width="0.4765" stroke-miterlimit="2.4142" d="
	M127.507,30.013v1.598v0.686l-0.366,0.019c-0.203,0.026-0.491,0.038-0.863,0.038c-0.092,0-0.188-0.004-0.291-0.012
	c-0.102-0.009-0.222-0.026-0.361-0.048c-0.209-0.024-0.401-0.082-0.575-0.175c-0.203-0.086-0.373-0.216-0.51-0.387
	c-0.137-0.172-0.204-0.38-0.204-0.624c0-0.255,0.073-0.476,0.218-0.663c0.174-0.191,0.377-0.335,0.61-0.43
	c0.232-0.097,0.422-0.158,0.57-0.183c0.148-0.027,0.326-0.055,0.531-0.083c0.207-0.028,0.42-0.056,0.641-0.078
	c0-0.105-0.013-0.192-0.039-0.261c-0.025-0.07-0.076-0.164-0.152-0.28c-0.075-0.115-0.164-0.195-0.267-0.235
	c-0.101-0.041-0.189-0.072-0.269-0.095c-0.079-0.024-0.149-0.042-0.215-0.052l-0.504-0.036c-0.14,0-0.244,0-0.314,0l-0.34,0.018
	l0.07-0.532h0.234h0.494c0.33,0,0.618,0.036,0.863,0.104c0.246,0.069,0.441,0.174,0.587,0.313c0.145,0.115,0.256,0.278,0.335,0.485
	C127.468,29.309,127.507,29.613,127.507,30.013L127.507,30.013z M126.906,30.982V30.64v-0.472c-0.121,0-0.335,0.023-0.64,0.068
	c-0.305,0.047-0.519,0.097-0.641,0.147c-0.122,0.051-0.214,0.093-0.273,0.125c-0.063,0.031-0.143,0.095-0.241,0.19
	c-0.098,0.095-0.147,0.223-0.147,0.384c0,0.156,0.038,0.28,0.113,0.373c0.075,0.091,0.146,0.157,0.214,0.197
	c0.066,0.041,0.157,0.08,0.27,0.117c0.113,0.037,0.193,0.06,0.24,0.068c0.046,0.008,0.099,0.019,0.156,0.03l0.505,0.027h0.192h0.252
	v-0.268V30.982L126.906,30.982z"/>
<path fill-rule="evenodd" clip-rule="evenodd" fill="#FFFFFF" stroke="#FFFFFF" stroke-width="0.4765" stroke-miterlimit="2.4142" d="
	M132.76,32.297h-0.628v-0.743v-0.771v-0.614v-0.6c0-0.299-0.045-0.503-0.131-0.611c-0.088-0.109-0.175-0.18-0.261-0.212
	c-0.088-0.032-0.203-0.048-0.35-0.048c-0.167,0-0.34,0.039-0.517,0.117c-0.178,0.077-0.322,0.144-0.436,0.196
	c-0.113,0.054-0.239,0.125-0.379,0.215v0.485l-0.014,0.772l0.014,1.128v0.686h-0.629l0.015-0.5v-1.358v-0.985V28.25h0.614v0.447
	c0.198-0.104,0.377-0.193,0.537-0.268c0.161-0.076,0.293-0.13,0.397-0.164c0.105-0.035,0.22-0.067,0.341-0.096
	c0.123-0.03,0.219-0.044,0.289-0.044c0.168,0,0.321,0.027,0.459,0.083c0.136,0.056,0.283,0.162,0.44,0.322
	c0.156,0.16,0.236,0.429,0.236,0.807l-0.028,0.891v0.585v0.907L132.76,32.297L132.76,32.297z"/>
<path fill-rule="evenodd" clip-rule="evenodd" fill="#FFFFFF" stroke="#FFFFFF" stroke-width="0.4765" stroke-miterlimit="2.4142" d="
	M136.884,31.122c0,0.117-0.011,0.212-0.029,0.288c-0.021,0.075-0.057,0.151-0.11,0.227c-0.039,0.076-0.092,0.146-0.155,0.21
	c-0.065,0.062-0.144,0.125-0.236,0.182c-0.092,0.057-0.181,0.103-0.262,0.135c-0.08,0.033-0.181,0.065-0.305,0.1
	c-0.104,0.019-0.217,0.033-0.34,0.044c-0.121,0.012-0.251,0.017-0.391,0.017h-0.41l-0.242-0.017l-0.019-0.525l0.279,0.029h0.48
	l0.357-0.029c0.134,0,0.249-0.023,0.345-0.07c0.097-0.047,0.167-0.084,0.214-0.113c0.047-0.029,0.094-0.077,0.14-0.145
	c0.047-0.067,0.069-0.161,0.069-0.284c0-0.099-0.027-0.183-0.087-0.253c-0.058-0.069-0.126-0.129-0.201-0.179
	c-0.075-0.049-0.131-0.084-0.168-0.109c-0.034-0.023-0.142-0.075-0.321-0.152c-0.182-0.079-0.295-0.134-0.338-0.162
	c-0.044-0.029-0.122-0.077-0.231-0.145c-0.111-0.066-0.207-0.172-0.289-0.319c-0.099-0.145-0.149-0.319-0.149-0.523
	c0-0.186,0.052-0.36,0.153-0.52c0.101-0.16,0.242-0.287,0.419-0.379c0.178-0.094,0.324-0.147,0.441-0.161
	c0.116-0.015,0.23-0.028,0.344-0.04c0.114-0.012,0.221-0.019,0.319-0.019h0.393h0.192l0.035,0.532l-0.245-0.018h-0.463
	c-0.145,0-0.265,0.011-0.358,0.035c-0.092,0.012-0.152,0.022-0.178,0.032c-0.026,0.008-0.081,0.036-0.161,0.083
	c-0.083,0.046-0.149,0.108-0.201,0.183c-0.041,0.082-0.062,0.164-0.062,0.244c0,0.111,0.024,0.192,0.073,0.244
	c0.051,0.053,0.097,0.099,0.142,0.135c0.043,0.039,0.085,0.065,0.125,0.083c0.047,0.034,0.112,0.073,0.196,0.117
	c0.085,0.044,0.195,0.095,0.332,0.153s0.247,0.122,0.336,0.192c0.088,0.046,0.165,0.102,0.235,0.164
	c0.069,0.064,0.134,0.134,0.191,0.21C136.837,30.739,136.884,30.914,136.884,31.122L136.884,31.122z"/>
<path fill-rule="evenodd" clip-rule="evenodd" fill="#FFFFFF" stroke="#FFFFFF" stroke-width="0.4765" stroke-miterlimit="2.4142" d="
	M140.841,26.926h-0.098h-0.112c-0.264,0-0.464,0.02-0.604,0.061c-0.117,0.047-0.19,0.081-0.223,0.101
	c-0.031,0.022-0.077,0.06-0.136,0.119c-0.058,0.06-0.106,0.119-0.144,0.177c-0.039,0.059-0.072,0.141-0.102,0.246
	c-0.028,0.106-0.044,0.249-0.044,0.431v0.194h1.364v0.456h-1.364v2.419v1.167h-0.631l0.032-1.123v-2.463h-0.801v-0.456h0.801v-0.203
	c0-0.233,0.027-0.441,0.083-0.623c0.056-0.181,0.168-0.36,0.342-0.535c0.117-0.14,0.293-0.254,0.531-0.342
	c0.202-0.093,0.469-0.141,0.799-0.141h0.131h0.087L140.841,26.926L140.841,26.926z"/>
<path fill-rule="evenodd" clip-rule="evenodd" fill="#FFFFFF" stroke="#FFFFFF" stroke-width="0.4765" stroke-miterlimit="2.4142" d="
	M145.127,30.125h-2.913c0,0.175,0.017,0.318,0.05,0.433c0.031,0.113,0.074,0.228,0.127,0.344c0.135,0.244,0.317,0.441,0.553,0.593
	c0.063,0.034,0.146,0.076,0.246,0.123c0.099,0.046,0.195,0.078,0.289,0.096c0.076,0.024,0.179,0.041,0.308,0.052
	c0.128,0.011,0.263,0.018,0.403,0.018h0.421l0.245-0.029l-0.078,0.543h-0.21l-0.419,0.015c-0.238,0-0.446-0.012-0.625-0.036
	c-0.177-0.023-0.35-0.066-0.519-0.13c-0.171-0.064-0.31-0.128-0.42-0.191c-0.11-0.064-0.235-0.159-0.372-0.283
	c-0.136-0.126-0.278-0.328-0.423-0.607c-0.116-0.262-0.176-0.541-0.176-0.837c0-0.313,0.048-0.597,0.142-0.851
	c0.091-0.252,0.225-0.475,0.396-0.667c0.173-0.192,0.345-0.323,0.52-0.397c0.175-0.071,0.321-0.121,0.438-0.147
	c0.116-0.026,0.238-0.04,0.368-0.04c0.115,0,0.231,0.013,0.343,0.036c0.114,0.023,0.222,0.053,0.323,0.091
	c0.103,0.038,0.191,0.082,0.268,0.136c0.076,0.052,0.174,0.143,0.291,0.274c0.121,0.131,0.222,0.326,0.304,0.581
	C145.086,29.5,145.127,29.793,145.127,30.125L145.127,30.125z M144.516,29.667c-0.029-0.168-0.071-0.317-0.127-0.449
	c-0.056-0.131-0.149-0.265-0.283-0.402c-0.134-0.137-0.355-0.206-0.662-0.206c-0.156,0-0.294,0.022-0.41,0.066
	c-0.116,0.044-0.227,0.114-0.332,0.21c-0.104,0.095-0.19,0.205-0.257,0.327c-0.066,0.122-0.123,0.273-0.17,0.453H144.516
	L144.516,29.667z"/>
<path fill-rule="evenodd" clip-rule="evenodd" fill="#FFFFFF" stroke="#FFFFFF" stroke-width="0.4765" stroke-miterlimit="2.4142" d="
	M149.016,28.702c-0.133,0.042-0.238,0.075-0.316,0.101s-0.229,0.082-0.455,0.166c-0.227,0.084-0.541,0.222-0.944,0.414v0.4
	l-0.015,0.672l0.015,1.127v0.715h-0.63l0.015-0.443v-1.286v-1.058v-1.256h0.615v0.599c0.058-0.027,0.197-0.1,0.424-0.214
	c0.226-0.113,0.43-0.209,0.612-0.289c0.182-0.078,0.367-0.144,0.559-0.197L149.016,28.702L149.016,28.702z"/>
<path fill-rule="evenodd" clip-rule="evenodd" fill="#FFFFFF" stroke="#FFFFFF" stroke-width="0.4765" stroke-miterlimit="2.4142" d="
	M153.597,32.297h-0.601v-0.485c-0.093,0.064-0.201,0.129-0.329,0.196c-0.125,0.068-0.251,0.133-0.369,0.197
	c-0.289,0.128-0.563,0.192-0.821,0.192c-0.357,0-0.641-0.108-0.851-0.322c-0.21-0.215-0.316-0.522-0.316-0.923v-0.757
	c0-0.128,0-0.247,0-0.357c0-0.109,0-0.209,0-0.295v-0.889l-0.027-0.599h0.636l-0.009,0.564v0.835v0.685v0.573
	c0,0.313,0.057,0.548,0.162,0.706c0.108,0.158,0.274,0.236,0.502,0.236c0.245,0,0.507-0.07,0.786-0.21
	c0.145-0.06,0.269-0.117,0.369-0.172c0.103-0.056,0.191-0.11,0.268-0.164v-0.44v-0.971v-1.014v-0.627h0.617l-0.017,0.442v1.301
	v0.915V32.297L153.597,32.297z"/>
<polygon fill-rule="evenodd" clip-rule="evenodd" fill="#FFFFFF" stroke="#FFFFFF" stroke-width="0.4765" stroke-miterlimit="2.4142" points="
	162.233,27.511 161.695,27.483 160.251,27.483 160.234,28.74 160.234,29.896 160.234,31.336 160.274,32.297 159.624,32.297 
	159.633,31.312 159.633,29.882 159.633,28.768 159.633,27.483 158.227,27.483 157.647,27.483 157.647,26.941 158.643,26.941 
	159.918,26.941 161.525,26.941 162.233,26.941 162.233,27.511 "/>
<path fill-rule="evenodd" clip-rule="evenodd" fill="#FFFFFF" stroke="#FFFFFF" stroke-width="0.4765" stroke-miterlimit="2.4142" d="
	M166.625,30.125h-2.911c0,0.175,0.017,0.318,0.048,0.433c0.032,0.113,0.074,0.228,0.127,0.344c0.135,0.244,0.319,0.441,0.554,0.593
	c0.064,0.034,0.146,0.076,0.245,0.123s0.196,0.078,0.288,0.096c0.078,0.024,0.18,0.041,0.308,0.052
	c0.13,0.011,0.265,0.018,0.405,0.018h0.421l0.246-0.029l-0.079,0.543h-0.21l-0.418,0.015c-0.24,0-0.448-0.012-0.627-0.036
	c-0.177-0.023-0.35-0.066-0.519-0.13c-0.169-0.064-0.309-0.128-0.419-0.191c-0.111-0.064-0.235-0.159-0.372-0.283
	c-0.138-0.126-0.278-0.328-0.424-0.607c-0.116-0.262-0.175-0.541-0.175-0.837c0-0.313,0.046-0.597,0.139-0.851
	c0.096-0.252,0.227-0.475,0.398-0.667c0.172-0.192,0.346-0.323,0.521-0.397c0.174-0.071,0.32-0.121,0.437-0.147
	c0.116-0.026,0.238-0.04,0.367-0.04c0.116,0,0.23,0.013,0.345,0.036c0.113,0.023,0.222,0.053,0.322,0.091
	c0.103,0.038,0.192,0.082,0.268,0.136c0.075,0.052,0.174,0.143,0.292,0.274c0.12,0.131,0.22,0.326,0.301,0.581
	C166.583,29.5,166.625,29.793,166.625,30.125L166.625,30.125z M166.016,29.667c-0.029-0.168-0.071-0.317-0.128-0.449
	c-0.054-0.131-0.149-0.265-0.282-0.402c-0.135-0.137-0.354-0.206-0.663-0.206c-0.156,0-0.294,0.022-0.408,0.066
	c-0.117,0.044-0.229,0.114-0.332,0.21c-0.106,0.095-0.191,0.205-0.258,0.327c-0.066,0.122-0.125,0.273-0.171,0.453H166.016
	L166.016,29.667z"/>
<path fill-rule="evenodd" clip-rule="evenodd" fill="#FFFFFF" stroke="#FFFFFF" stroke-width="0.4765" stroke-miterlimit="2.4142" d="
	M170.851,31.783l-0.061,0.529h-0.096h-0.114c-0.337,0-0.661-0.036-0.972-0.105c-0.31-0.07-0.563-0.157-0.758-0.26
	c-0.194-0.105-0.354-0.215-0.475-0.332c-0.123-0.116-0.252-0.282-0.389-0.497c-0.136-0.215-0.203-0.505-0.203-0.871
	c0-0.314,0.062-0.574,0.187-0.779c0.125-0.208,0.238-0.364,0.339-0.471c0.102-0.107,0.249-0.22,0.44-0.335
	c0.192-0.116,0.459-0.219,0.801-0.305c0.345-0.087,0.686-0.13,1.029-0.13h0.088h0.077l0.026,0.542h-0.069h-0.044
	c-0.308,0-0.564,0.018-0.771,0.053c-0.205,0.034-0.41,0.09-0.614,0.165c-0.261,0.129-0.47,0.304-0.627,0.529
	c-0.156,0.225-0.235,0.468-0.235,0.729c0,0.302,0.079,0.564,0.235,0.786c0.127,0.21,0.278,0.354,0.449,0.433
	c0.171,0.078,0.312,0.135,0.419,0.169c0.105,0.035,0.254,0.068,0.438,0.101c0.187,0.032,0.397,0.048,0.636,0.048h0.156H170.851
	L170.851,31.783z"/>
<path fill-rule="evenodd" clip-rule="evenodd" fill="#FFFFFF" stroke="#FFFFFF" stroke-width="0.4765" stroke-miterlimit="2.4142" d="
	M175.705,32.297h-0.629v-0.715v-0.799v-0.614v-0.6c0-0.299-0.045-0.503-0.132-0.611c-0.088-0.109-0.175-0.18-0.263-0.212
	c-0.087-0.032-0.204-0.048-0.351-0.048c-0.156,0-0.354,0.051-0.586,0.152c-0.259,0.096-0.51,0.222-0.754,0.377v3.071h-0.615
	l0.016-1.257v-1.819v-1.167v-1.643h0.621l-0.021,2.286c0.176-0.092,0.347-0.179,0.518-0.259c0.169-0.082,0.309-0.139,0.417-0.173
	c0.108-0.035,0.226-0.067,0.349-0.096c0.123-0.03,0.218-0.044,0.289-0.044c0.169,0,0.323,0.027,0.46,0.083s0.286,0.162,0.443,0.322
	c0.158,0.16,0.238,0.429,0.238,0.807l-0.028,0.891v0.585v0.829C175.677,31.956,175.686,32.174,175.705,32.297L175.705,32.297z"/>
<path fill-rule="evenodd" clip-rule="evenodd" fill="#FFFFFF" stroke="#FFFFFF" stroke-width="0.4765" stroke-miterlimit="2.4142" d="
	M180.957,32.297h-0.627v-0.743v-0.771v-0.614v-0.6c0-0.299-0.044-0.503-0.13-0.611c-0.087-0.109-0.175-0.18-0.261-0.212
	c-0.087-0.032-0.204-0.048-0.349-0.048c-0.169,0-0.34,0.039-0.519,0.117c-0.177,0.077-0.322,0.144-0.434,0.196
	c-0.115,0.054-0.24,0.125-0.38,0.215v0.485l-0.015,0.772l0.015,1.128v0.686h-0.629l0.015-0.5v-1.358v-0.985V28.25h0.614v0.447
	c0.197-0.104,0.378-0.193,0.536-0.268c0.162-0.076,0.295-0.13,0.397-0.164c0.106-0.035,0.221-0.067,0.343-0.096
	c0.122-0.03,0.218-0.044,0.288-0.044c0.168,0,0.321,0.027,0.458,0.083s0.284,0.162,0.441,0.322c0.156,0.16,0.234,0.429,0.234,0.807
	l-0.026,0.891v0.585v0.907L180.957,32.297L180.957,32.297z"/>
<path fill-rule="evenodd" clip-rule="evenodd" fill="#FFFFFF" stroke="#FFFFFF" stroke-width="0.4765" stroke-miterlimit="2.4142" d="
	M186.427,30.261c0,0.203-0.011,0.365-0.03,0.484c-0.021,0.119-0.066,0.257-0.135,0.414c-0.1,0.279-0.246,0.51-0.44,0.693
	c-0.195,0.184-0.399,0.324-0.616,0.423c-0.213,0.082-0.458,0.122-0.73,0.122c-0.25,0-0.489-0.041-0.717-0.122
	c-0.236-0.099-0.419-0.209-0.547-0.331c-0.13-0.123-0.23-0.242-0.306-0.358c-0.075-0.115-0.151-0.255-0.228-0.417
	c-0.052-0.151-0.093-0.301-0.122-0.449c-0.029-0.148-0.042-0.301-0.042-0.458c0-0.29,0.034-0.538,0.108-0.741
	c0.072-0.202,0.144-0.358,0.213-0.465c0.07-0.108,0.16-0.224,0.27-0.345c0.187-0.187,0.373-0.316,0.559-0.392
	c0.186-0.076,0.335-0.127,0.445-0.153c0.11-0.026,0.234-0.04,0.374-0.04c0.146,0,0.272,0.011,0.38,0.034
	c0.107,0.024,0.253,0.072,0.436,0.146c0.184,0.072,0.342,0.176,0.476,0.313c0.133,0.137,0.238,0.271,0.317,0.401
	c0.078,0.131,0.142,0.256,0.193,0.375c0.049,0.12,0.085,0.255,0.108,0.41C186.415,29.957,186.427,30.11,186.427,30.261
	L186.427,30.261z M185.798,30.291c0-0.249-0.044-0.491-0.13-0.729c-0.077-0.237-0.201-0.437-0.375-0.601
	c-0.047-0.051-0.097-0.093-0.147-0.125c-0.052-0.032-0.117-0.064-0.196-0.096c-0.077-0.032-0.157-0.056-0.234-0.074
	c-0.078-0.018-0.156-0.026-0.23-0.026c-0.181,0-0.34,0.033-0.479,0.095c-0.129,0.047-0.244,0.125-0.346,0.231
	c-0.1,0.108-0.18,0.206-0.238,0.296c-0.058,0.09-0.104,0.186-0.143,0.287c-0.039,0.102-0.064,0.216-0.082,0.348
	c-0.019,0.129-0.026,0.25-0.026,0.361c0,0.167,0.007,0.302,0.021,0.403c0.013,0.103,0.051,0.236,0.108,0.405
	c0.058,0.168,0.147,0.31,0.274,0.425c0.124,0.116,0.215,0.191,0.272,0.227c0.059,0.035,0.14,0.071,0.244,0.109
	c0.105,0.038,0.232,0.056,0.383,0.056c0.182,0,0.324-0.022,0.429-0.069c0.104-0.047,0.186-0.089,0.247-0.126
	c0.06-0.038,0.116-0.088,0.169-0.152c0.156-0.151,0.274-0.338,0.356-0.561C185.757,30.751,185.798,30.523,185.798,30.291
	L185.798,30.291z"/>
<path fill-rule="evenodd" clip-rule="evenodd" fill="#FFFFFF" stroke="#FFFFFF" stroke-width="0.4765" stroke-miterlimit="2.4142" d="
	M188.719,32.297h-0.643l0.014-1.172v-1.871v-1.2v-1.643h0.631l-0.031,1.432v1.371l0.029,2.13
	C188.719,31.962,188.719,32.279,188.719,32.297L188.719,32.297z"/>
<path fill-rule="evenodd" clip-rule="evenodd" fill="#FFFFFF" stroke="#FFFFFF" stroke-width="0.4765" stroke-miterlimit="2.4142" d="
	M194.257,30.261c0,0.203-0.011,0.365-0.031,0.484s-0.064,0.257-0.134,0.414c-0.098,0.279-0.247,0.51-0.439,0.693
	c-0.196,0.184-0.399,0.324-0.615,0.423c-0.216,0.082-0.46,0.122-0.732,0.122c-0.25,0-0.488-0.041-0.715-0.122
	c-0.237-0.099-0.421-0.209-0.55-0.331c-0.127-0.123-0.229-0.242-0.306-0.358c-0.074-0.115-0.151-0.255-0.225-0.417
	c-0.055-0.151-0.096-0.301-0.123-0.449c-0.029-0.148-0.044-0.301-0.044-0.458c0-0.29,0.037-0.538,0.108-0.741
	c0.073-0.202,0.145-0.358,0.215-0.465c0.068-0.108,0.158-0.224,0.27-0.345c0.187-0.187,0.373-0.316,0.559-0.392
	c0.185-0.076,0.334-0.127,0.444-0.153c0.109-0.026,0.236-0.04,0.375-0.04c0.146,0,0.271,0.011,0.379,0.034
	c0.107,0.024,0.253,0.072,0.437,0.146c0.183,0.072,0.34,0.176,0.476,0.313c0.134,0.137,0.238,0.271,0.317,0.401
	c0.079,0.131,0.142,0.256,0.19,0.375c0.052,0.12,0.086,0.255,0.109,0.41C194.245,29.957,194.257,30.11,194.257,30.261
	L194.257,30.261z M193.628,30.291c0-0.249-0.043-0.491-0.13-0.729c-0.076-0.237-0.2-0.437-0.375-0.601
	c-0.045-0.051-0.096-0.093-0.146-0.125c-0.052-0.032-0.118-0.064-0.196-0.096c-0.079-0.032-0.158-0.056-0.235-0.074
	c-0.077-0.018-0.156-0.026-0.23-0.026c-0.18,0-0.341,0.033-0.479,0.095c-0.129,0.047-0.242,0.125-0.344,0.231
	c-0.102,0.108-0.181,0.206-0.239,0.296c-0.059,0.09-0.106,0.186-0.144,0.287c-0.039,0.102-0.065,0.216-0.083,0.348
	c-0.019,0.129-0.027,0.25-0.027,0.361c0,0.167,0.007,0.302,0.022,0.403c0.016,0.103,0.052,0.236,0.108,0.405
	c0.06,0.168,0.149,0.31,0.275,0.425c0.124,0.116,0.217,0.191,0.273,0.227c0.06,0.035,0.14,0.071,0.245,0.109
	c0.104,0.038,0.232,0.056,0.382,0.056c0.18,0,0.322-0.022,0.426-0.069c0.104-0.047,0.188-0.089,0.248-0.126
	c0.063-0.038,0.118-0.088,0.171-0.152c0.156-0.151,0.275-0.338,0.356-0.561C193.587,30.751,193.628,30.523,193.628,30.291
	L193.628,30.291z"/>
<path fill-rule="evenodd" clip-rule="evenodd" fill="#FFFFFF" stroke="#FFFFFF" stroke-width="0.4765" stroke-miterlimit="2.4142" d="
	M198.921,28.21v0.787v1.348v0.87v0.826c0,0.429-0.057,0.747-0.172,0.953c-0.112,0.205-0.224,0.358-0.335,0.457
	c-0.11,0.098-0.24,0.193-0.392,0.286c-0.129,0.059-0.258,0.108-0.389,0.153c-0.131,0.043-0.278,0.079-0.449,0.108
	c-0.308,0.076-0.701,0.114-1.178,0.114l-0.077-0.515c0.292,0,0.579-0.009,0.86-0.028c0.119,0,0.221-0.012,0.313-0.036
	c0.09-0.023,0.255-0.078,0.492-0.166c0.236-0.087,0.399-0.207,0.489-0.358c0.087-0.151,0.148-0.281,0.184-0.393
	c0.035-0.111,0.054-0.236,0.054-0.377h-0.098h-0.097c-0.281,0-0.605-0.037-0.973-0.116c-0.368-0.079-0.667-0.201-0.896-0.367
	c-0.228-0.166-0.396-0.341-0.505-0.527c-0.107-0.186-0.181-0.359-0.219-0.519c-0.037-0.16-0.057-0.33-0.057-0.51
	c0-0.377,0.078-0.671,0.229-0.88c0.156-0.21,0.301-0.373,0.44-0.489c0.14-0.117,0.313-0.224,0.521-0.323
	c0.205-0.099,0.41-0.167,0.612-0.205c0.204-0.037,0.4-0.062,0.589-0.074c0.188-0.012,0.389-0.019,0.598-0.019h0.218H198.921
	L198.921,28.21z M198.321,30.339v-0.729v-0.907h-0.062h-0.045c-0.104,0-0.216,0.005-0.329,0.017c-0.114,0.011-0.22,0.025-0.313,0.04
	c-0.094,0.014-0.197,0.041-0.313,0.079c-0.114,0.038-0.258,0.091-0.435,0.162c-0.177,0.069-0.338,0.219-0.484,0.449
	c-0.146,0.229-0.22,0.489-0.22,0.778c0,0.157,0.016,0.293,0.048,0.409c0.032,0.116,0.105,0.258,0.221,0.422
	c0.113,0.166,0.291,0.298,0.531,0.396c0.164,0.082,0.351,0.151,0.563,0.208c0.111,0.019,0.223,0.033,0.334,0.044
	s0.227,0.017,0.344,0.017h0.089h0.07v-0.449V30.339L198.321,30.339z"/>
<path fill-rule="evenodd" clip-rule="evenodd" fill="#FFFFFF" stroke="#FFFFFF" stroke-width="0.4765" stroke-miterlimit="2.4142" d="
	M201.588,27.468h-0.7v-0.685h0.7V27.468L201.588,27.468z M201.56,32.297h-0.644v-0.786v-1.199v-0.915v-1.142h0.638l-0.037,1.07v0.9
	v1.485L201.56,32.297L201.56,32.297z"/>
<path fill-rule="evenodd" clip-rule="evenodd" fill="#FFFFFF" stroke="#FFFFFF" stroke-width="0.4765" stroke-miterlimit="2.4142" d="
	M204.259,27.468h-0.698v-0.685h0.698V27.468L204.259,27.468z M204.231,32.297h-0.644v-0.786v-1.199v-0.915v-1.142h0.639l-0.038,1.07
	v0.9v1.485L204.231,32.297L204.231,32.297z"/>
<polygon fill-rule="evenodd" clip-rule="evenodd" fill="#FFFFFF" points="52.614,45.782 214.757,45.782 214.757,46.233 
	52.614,46.233 52.614,45.782 "/>
</svg>
